<svg version="1.2" xmlns="http://www.w3.org/2000/svg" viewBox="0 0 2100 625" width="2100" height="625">
	<style>
		.s0 { fill: #fbb90f } 
		.s1 { fill: #56af31 } 
		.s2 { fill: #010202 } 
	</style>
	<g>
		<path fill-rule="evenodd" class="s0" d="m246.92 197.04v0.22c0 3.19-2.08 6-5.27 6.98 0 0-214.24 77.69-215.88 78.35-15.71-10.89-25.05-28.62-25.05-47.78v-49.07c0-32.03 26.03-58.06 58.03-58.06 5.77 0 11.52 0.85 17.01 2.52 4.86 1.71 113.06 40.93 165.57 59.96 2.46 0.7 5.59 3.22 5.59 6.88z"/>
		<path fill-rule="evenodd" class="s1" d="m296.94 239.36l-0.13-0.29c-3.38-7.63-8.08-14.86-13.92-21.3q-1.52-1.61-3-3.09c-5.3 14.96-19.09 20.92-23.57 22.47l-216.73 78.57c-6.02 2.69-5.52 2.34-8.14 3.76-18.96 10.38-30.73 30.32-30.73 51.94v63.74c0 32.66 26.6 59.27 59.29 59.27 5.9 0 11.8-0.89 17.55-2.62 6.69-2.34 168.98-61.19 170.49-61.73 2.81-0.97 4.67-1.73 5.15-1.92l0.09-0.03c11.17-4.61 21.37-11.81 29.51-20.8 5.8-6.4 10.54-13.6 14.04-21.49 4.73-10.51 7.1-21.77 7.1-33.45v-79.71c0.06-11.74-2.3-22.91-7-33.32z"/>
		<g>
			<path class="s2" d="m1369.66 291.8h0.16c15.05 0 27.26-12.22 27.26-27.27v-238.85c0-14.17-11.48-25.65-25.62-25.65-15.15 0-27.45 12.27-27.45 27.42v73.31c-14.71-8.15-31.65-12.82-49.67-12.82-56.77 0-102.78 46.04-102.78 102.78 0 56.74 46.01 102.75 102.78 102.75 8.39 0 16.56-1.01 24.39-2.9 10.22-2.47 19.79-6.57 28.56-11.87 4.42 7.83 12.78 13.1 22.37 13.1zm-75.29-51.38c-27.46 0-49.7-22.28-49.7-49.7 0-27.48 22.21-49.7 49.67-49.7 27.45 0 49.67 22.22 49.67 49.7 0 27.39-22.22 49.7-49.64 49.7z"/>
			<path class="s2" d="m431.56 0.09c-18.37 0-33.26 14.9-33.26 33.26 0 18.34 14.89 33.23 33.26 33.23 18.36 0 33.26-14.89 33.26-33.26 0-18.33-14.9-33.23-33.26-33.23z"/>
			<path class="s2" d="m431.84 87.75h-0.6c-14.23-0.06-26 11.02-26 25.25v155.19c0 13.95 11.3 25.28 25.28 25.28h2.05c13.95 0 25.27-11.33 25.27-25.28v-155.19c0.04-14.23-11.73-25.34-26-25.25z"/>
			<path class="s2" d="m902.53 0.03c-15.14 0-27.42 12.27-27.42 27.42v73.31c-14.73-8.15-31.65-12.82-49.7-12.82-56.77 0-102.75 46.04-102.75 102.78 0 56.74 45.98 102.75 102.75 102.75 8.4 0 16.57-1.01 24.39-2.9 10.23-2.47 19.79-6.57 28.56-11.87 4.39 7.83 12.75 13.1 22.34 13.1h0.16c15.05 0 27.27-12.22 27.27-27.27v-238.85c0.03-14.17-11.43-25.65-25.6-25.65zm-77.09 240.39c-27.45 0-49.7-22.28-49.7-49.7 0-27.48 22.22-49.7 49.67-49.7 27.46 0 49.67 22.22 49.67 49.7 0.03 27.39-22.21 49.7-49.64 49.7z"/>
			<path class="s2" d="m1289.67 417.74q-13.77-7.33-35.54-7.32h-52.25c-2.91 0-5.37 1.04-7.32 3.09q-2.99 3.08-3 7.45v140.26c0 2.91 1.01 5.37 2.96 7.33h0.04q2.97 2.97 7.32 2.96 4.36 0.01 7.44-2.96c2.06-1.99 3.1-4.42 3.1-7.36v-49.04h41.71q21.77 0.01 35.54-7.32c9.18-4.89 15.74-11.14 19.72-18.8q5.96-11.45 5.96-24.74 0-13.27-5.96-24.74c-3.98-7.64-10.54-13.89-19.72-18.81zm-4.7 65.79q-9.51 8.94-32.89 8.93h-39.63v-62.35h39.63q23.38-0.01 32.89 8.93 9.5 8.95 9.49 22.21c0.04 8.9-3.15 16.32-9.49 22.28z"/>
			<path class="s2" d="m1061.86 87.94c-56.77 0-102.78 46.04-102.78 102.78 0 56.74 45.98 102.75 102.75 102.75 8.39 0 16.57-1.01 24.39-2.9 45-10.95 78.36-51.5 78.36-99.85 0-56.74-45.95-102.78-102.72-102.78zm0 152.48c-27.45 0-49.7-22.28-49.7-49.7 0-27.48 22.22-49.7 49.67-49.7 27.45 0 49.67 22.22 49.67 49.7 0 27.39-22.22 49.7-49.64 49.7z"/>
			<path class="s2" d="m1408.19 457.63q-10.88-6.4-26.69-6.41-20.17 0-39.67 8.24-5.96 2.5-5.96 8.7c0 2.43 0.82 4.52 2.52 6.19q2.51 2.52 5.96 2.52 1.12 0 3-0.47c5.49-1.83 10.48-3.19 14.99-4.13 4.48-0.92 9.66-1.39 15.46-1.39 10.54 0 18.31 2.24 23.26 6.66q7.44 6.67 7.45 21.77v1.83h-27.74c-17.26 0-30.36 3.35-39.32 10.1q-13.4 10.09-13.41 27.04c0 6.88 1.67 12.97 5.05 18.21 3.34 5.27 7.92 9.28 13.63 12.02q8.61 4.13 18.68 4.14c17.39 0 31.78-5.81 43.08-17.42v5.96c0 2.91 0.97 5.37 2.99 7.32 1.99 1.99 4.42 3 7.36 3 2.87 0 5.36-1.01 7.41-3 2.09-1.98 3.09-4.45 3.09-7.32v-64.85c0-7.95-1.7-15.3-5.14-22.12-3.38-6.78-8.74-12.3-16-16.59zm0.35 79.55q-6.39 7.33-15.81 12.24v0.03c-6.28 3.29-12.75 4.93-19.5 4.93q-13.06 0-18.68-5.05-5.63-5.03-5.62-13.32c0-12.05 11.52-18.11 34.62-18.11h24.99z"/>
			<path class="s2" d="m2088.99 451.22h-1.14c-13.28 0-25.31 7.16-35.97 21.55v-9.87q-0.01-4.37-3.1-7.45c-2.08-2.08-4.54-3.09-7.44-3.09-2.91 0-5.37 1.01-7.32 3.09q-2.99 3.08-3 7.45v98.32c0 2.91 1.01 5.37 3 7.33q2.97 2.97 7.32 2.96 4.36 0.01 7.44-2.96 3.09-2.98 3.1-7.33v-69.67c4.13-6.28 9.24-11.17 15.36-14.8q9.14-5.36 20.17-5.37h1.14q4.59 0 7.57-2.74 2.99-2.75 3-7.1 0-4.35-2.88-7.32c-1.92-2.02-4.32-3-7.25-3z"/>
			<path class="s2" d="m1982.8 459.11c-8.24-5.27-18.05-7.89-29.35-7.89q-18.08-0.02-30.48 8.49-12.36 8.48-18.33 22.21-5.97 13.78-5.97 30.01 0 28.87 15.72 44.81v-0.03q15.7 15.95 43.67 15.94 13.72 0.01 22.47-2.5 8.72-2.5 17.64-7.57 5.96-3.44 5.96-8.49 0-3.89-2.74-6.4-2.76-2.52-6.41-2.53c-1.55 0-2.9 0.32-4.13 0.92-4.58 2.3-9.28 4.04-14.08 5.27q-7.24 1.81-16.85 1.83-18.09 0.01-28.18-8.93c-6.72-5.97-10.7-14.27-11.89-25h77.69c3.18 0 5.77-0.97 7.7-2.96 1.89-1.99 2.87-4.45 2.87-7.32q-0.01-15.58-6.41-28.78c-4.42-8.77-10.66-15.81-18.9-21.08zm4.58 43.23h-67.6c0.48-7.51 2.34-13.76 5.71-18.81 3.35-5.05 7.58-8.74 12.63-11.11q7.56-3.55 15.36-3.56 7.77 0.01 15.34 3.56c5.05 2.37 9.28 6.1 12.72 11.11q5.17 7.54 5.84 18.81z"/>
			<path class="s2" d="m1544.86 452.36c-4.45 0-7.63 2.3-9.62 6.87l-36.01 87.1-35.31-87.57q-1.14-2.73-3.79-4.61c-1.73-1.2-3.69-1.83-5.83-1.83-2.91 0-5.37 1.01-7.33 3.1q-2.99 3.08-2.99 7.44 0 2.09 0.91 4.36l43.08 104.99-14.87 38.31c-0.44 1.19-0.69 2.42-0.69 3.66q-0.01 4.11 2.87 7.13c1.93 1.99 4.23 3 7.01 3q6.39 0 9.62-7.14l62.58-150.36c0.47-1.23 0.69-2.49 0.69-3.91q-0.01-4.37-3-7.45c-1.98-2.05-4.45-3.09-7.32-3.09z"/>
			<path class="s2" d="m1882.14 552.29q-1.62 0-2.62 0.22l-1.96 0.48q-4.6 1.38-9.15 1.39-6.45 0-10.67-2.4-4.24-2.42-4.23-11.36v-69.24h25.91c2.59 0 4.74-0.85 6.41-2.62 1.67-1.76 2.52-3.85 2.52-6.31 0-2.58-0.82-4.73-2.52-6.4q-2.52-2.52-6.41-2.53h-25.91v-18.33c0-1.23-0.41-2.27-1.26-3.19q-1.24-1.38-3.09-1.39c-1.23 0-2.49 0.7-3.88 2.09l-31.18 30.48q-2.08 1.6-2.08 3.91-0.01 1.86 1.26 3.09c0.82 0.82 1.86 1.27 3.09 1.27h16.29v71.06q-0.01 30.24 33.45 30.23 10.08 0.01 19.02-4.1 5.27-2.75 5.27-8.02c0-2.3-0.82-4.22-2.52-5.83-1.67-1.71-3.6-2.5-5.74-2.5z"/>
			<path class="s2" d="m1672.48 549.55h-74.98v-129.73c0-2.9-1.01-5.4-3.09-7.45q-3.09-3.08-7.45-3.09c-2.9 0-5.37 1.04-7.32 3.09q-2.99 3.09-3 7.45v136.13c0 4.01 1.42 7.39 4.23 10.23q4.26 4.24 10.22 4.23h81.39q4.36 0.01 7.44-2.97 3.09-2.97 3.1-7.32-0.01-4.36-3.1-7.45-3.08-3.12-7.44-3.12z"/>
			<path class="s2" d="m1607.79 291.8c14.51 0 26.28-11.77 26.28-26.29v-74.76c0-56.73-45.98-102.77-102.75-102.77h0.04c-56.77 0-102.78 46.04-102.78 102.77 0 56.74 45.98 102.75 102.74 102.75 8.4 0 16.57-1.01 24.4-2.9 10.35-2.53 20.07-6.66 28.93-12.06 4.68 7.89 13.29 13.26 23.14 13.26zm-76.43-51.38c-27.46 0-49.7-22.28-49.7-49.7 0-27.48 22.21-49.7 49.66-49.7 27.46 0 49.67 22.22 49.67 49.7 0.04 27.39-22.21 49.7-49.63 49.7z"/>
			<path class="s2" d="m1776.42 457.63q-10.88-6.4-26.69-6.41-20.17 0-39.67 8.24-5.93 2.5-5.93 8.7c0 2.43 0.82 4.52 2.49 6.19q2.51 2.52 5.96 2.52 1.12 0 3-0.47c5.49-1.83 10.48-3.19 15.02-4.13 4.48-0.92 9.66-1.39 15.47-1.39 10.53 0 18.3 2.24 23.25 6.66q7.44 6.67 7.45 21.77v1.83h-27.74c-17.26 0-30.36 3.35-39.32 10.1q-13.4 10.09-13.41 27.04c0 6.88 1.67 12.97 5.05 18.21q5.02 7.91 13.63 12.02h-0.03q8.61 4.13 18.68 4.14c17.39 0 31.78-5.81 43.08-17.42v5.96c0 2.91 0.97 5.37 2.99 7.32q2.98 2.99 7.33 3 4.36-0.01 7.44-3c2.05-1.98 3.09-4.45 3.09-7.32v-64.85c0-7.95-1.73-15.3-5.14-22.12q-5.11-10.17-16-16.59zm0.32 79.55q-6.39 7.33-15.81 12.24v0.03c-6.28 3.29-12.75 4.93-19.5 4.93q-13.06 0-18.69-5.05-5.62-5.03-5.61-13.32c0-12.05 11.55-18.11 34.62-18.11h24.99z"/>
			<path class="s2" d="m1996.34 87.94c-56.77 0-102.75 46.04-102.75 102.78 0 56.74 45.98 102.75 102.75 102.75 8.39 0 16.56-1.01 24.39-2.9 10.35-2.53 20.07-6.69 28.94-12.09 4.64 7.95 13.25 13.32 23.13 13.32 14.55 0 26.28-11.77 26.28-26.29v-74.79c0-56.74-45.97-102.78-102.74-102.78zm49.67 102.81c0 27.39-22.22 49.67-49.67 49.67-27.46 0-49.67-22.28-49.67-49.7 0-27.48 22.21-49.7 49.67-49.7 27.45 0 49.67 22.22 49.67 49.73z"/>
			<path class="s2" d="m593 87.75c-53.49 0-96.97 43.49-96.97 96.95v82.92c0 14.08 11.42 25.5 25.49 25.5 14.08 0 25.53-11.42 25.53-25.53v-82.89c0-25.31 20.58-45.92 45.95-45.92 25.31 0 45.91 20.61 45.91 45.95v82.89c0 14.11 11.43 25.53 25.53 25.53 14.08 0 25.5-11.42 25.5-25.53v-82.89c0.03-53.49-43.48-96.98-96.94-96.98z"/>
			<path class="s2" d="m1837.36 293.12c14.07 0 25.49-11.42 25.49-25.53v-82.89c0-53.46-43.51-96.95-96.97-96.95-53.49 0-96.97 43.49-96.97 96.95v82.92c0 14.08 11.42 25.5 25.5 25.5 14.07 0 25.53-11.42 25.53-25.53v-82.89c0-25.31 20.6-45.92 45.91-45.92 25.34 0 45.92 20.61 45.92 45.95v82.89c0.06 14.08 11.48 25.5 25.59 25.5z"/>
		</g>
	</g>
</svg>